<svg xmlns="http://www.w3.org/2000/svg" viewBox="0 0 24 24" fill="none" stroke="currentColor" stroke-width="2" stroke-linecap="round" stroke-linejoin="round">
  <path d="M19 17h2c.6 0 1-.4 1-1v-3c0-.9-.7-1.7-1.5-1.9L18.7 5c-.3-.8-1-1.3-1.9-1.3h-3.8c-.8 0-1.5.5-1.9 1.3l-1.3 5.1c-.8.2-1.5 1-1.5 1.9v3c0 .6.4 1 1 1h2"/>
  <path d="M7 17H5c-.6 0-1-.4-1-1v-3c0-.9.7-1.7 1.5-1.9L5.3 5c.3-.8 1-1.3 1.9-1.3h3.8c.8 0 1.5.5 1.9 1.3l1.3 5.1c.8.2 1.5 1 1.5 1.9v3c0 .6-.4 1-1 1h-2"/>
  <circle cx="7" cy="17" r="2"/>
  <circle cx="17" cy="17" r="2"/>
</svg>

